<mxfile host="65bd71144e">
    <diagram name="Page-1" id="Pfw512TBdEc4AL0B_62l">
        <mxGraphModel dx="-430" dy="479" grid="1" gridSize="10" guides="1" tooltips="1" connect="1" arrows="1" fold="1" page="1" pageScale="1" pageWidth="827" pageHeight="1169" math="0" shadow="0">
            <root>
                <mxCell id="0"/>
                <mxCell id="1" parent="0"/>
                <mxCell id="2" value="" style="rounded=0;whiteSpace=wrap;html=1;strokeColor=none;" vertex="1" parent="1">
                    <mxGeometry x="1081" y="280" width="319" height="480" as="geometry"/>
                </mxCell>
                <mxCell id="IJmXjw1ShNEismxhBZoX-8" style="edgeStyle=orthogonalEdgeStyle;rounded=0;orthogonalLoop=1;jettySize=auto;html=1;exitX=0.5;exitY=1;exitDx=0;exitDy=0;entryX=0.5;entryY=0;entryDx=0;entryDy=0;" parent="1" source="IJmXjw1ShNEismxhBZoX-3" target="IJmXjw1ShNEismxhBZoX-4" edge="1">
                    <mxGeometry relative="1" as="geometry"/>
                </mxCell>
                <mxCell id="IJmXjw1ShNEismxhBZoX-3" value="&lt;b&gt;&lt;font style=&quot;font-size: 24px;&quot;&gt;Start&lt;/font&gt;&lt;/b&gt;" style="rounded=1;whiteSpace=wrap;html=1;arcSize=50;strokeWidth=2;" parent="1" vertex="1">
                    <mxGeometry x="1191" y="320" width="100" height="50" as="geometry"/>
                </mxCell>
                <mxCell id="IJmXjw1ShNEismxhBZoX-9" style="edgeStyle=orthogonalEdgeStyle;rounded=0;orthogonalLoop=1;jettySize=auto;html=1;exitX=0.5;exitY=1;exitDx=0;exitDy=0;entryX=0.5;entryY=0;entryDx=0;entryDy=0;" parent="1" source="IJmXjw1ShNEismxhBZoX-4" target="IJmXjw1ShNEismxhBZoX-5" edge="1">
                    <mxGeometry relative="1" as="geometry"/>
                </mxCell>
                <mxCell id="IJmXjw1ShNEismxhBZoX-4" value="&lt;b&gt;&lt;font style=&quot;font-size: 24px;&quot;&gt;&lt;font style=&quot;&quot;&gt;En&lt;/font&gt;ter side length &#39;a&#39;&lt;/font&gt;&lt;/b&gt;" style="shape=parallelogram;perimeter=parallelogramPerimeter;whiteSpace=wrap;html=1;fixedSize=1;align=center;strokeWidth=2;" parent="1" vertex="1">
                    <mxGeometry x="1111" y="410" width="260" height="50" as="geometry"/>
                </mxCell>
                <mxCell id="IJmXjw1ShNEismxhBZoX-10" style="edgeStyle=orthogonalEdgeStyle;rounded=0;orthogonalLoop=1;jettySize=auto;html=1;exitX=0.5;exitY=1;exitDx=0;exitDy=0;entryX=0.5;entryY=0;entryDx=0;entryDy=0;" parent="1" source="IJmXjw1ShNEismxhBZoX-5" target="IJmXjw1ShNEismxhBZoX-6" edge="1">
                    <mxGeometry relative="1" as="geometry"/>
                </mxCell>
                <mxCell id="IJmXjw1ShNEismxhBZoX-5" value="&lt;b&gt;&lt;font style=&quot;font-size: 24px;&quot;&gt;area = a * a&lt;/font&gt;&lt;/b&gt;" style="rounded=0;whiteSpace=wrap;html=1;align=center;gradientColor=none;strokeWidth=2;" parent="1" vertex="1">
                    <mxGeometry x="1171" y="500" width="140" height="50" as="geometry"/>
                </mxCell>
                <mxCell id="IJmXjw1ShNEismxhBZoX-11" style="edgeStyle=orthogonalEdgeStyle;rounded=0;orthogonalLoop=1;jettySize=auto;html=1;exitX=0.5;exitY=1;exitDx=0;exitDy=0;entryX=0.5;entryY=0;entryDx=0;entryDy=0;" parent="1" source="IJmXjw1ShNEismxhBZoX-6" target="IJmXjw1ShNEismxhBZoX-7" edge="1">
                    <mxGeometry relative="1" as="geometry"/>
                </mxCell>
                <mxCell id="IJmXjw1ShNEismxhBZoX-6" value="&lt;span style=&quot;font-size: 24px;&quot;&gt;&lt;b&gt;Print area&lt;/b&gt;&lt;/span&gt;" style="shape=parallelogram;perimeter=parallelogramPerimeter;whiteSpace=wrap;html=1;fixedSize=1;align=center;strokeWidth=2;" parent="1" vertex="1">
                    <mxGeometry x="1166" y="590" width="150" height="50" as="geometry"/>
                </mxCell>
                <mxCell id="IJmXjw1ShNEismxhBZoX-7" value="&lt;span style=&quot;font-size: 24px;&quot;&gt;&lt;b&gt;End&lt;/b&gt;&lt;/span&gt;" style="rounded=1;whiteSpace=wrap;html=1;arcSize=50;strokeWidth=2;" parent="1" vertex="1">
                    <mxGeometry x="1201" y="680" width="80" height="50" as="geometry"/>
                </mxCell>
            </root>
        </mxGraphModel>
    </diagram>
</mxfile>